<svg width="56" height="56" viewBox="0 0 56 56" fill="none" xmlns="http://www.w3.org/2000/svg">
<circle opacity="0.2" cx="28" cy="28" r="28" fill="#00984A"/>
<path d="M25.8 16.696C25.9067 16.632 26.0667 16.6 26.28 16.6H30.152C30.2587 16.6 30.344 16.6427 30.408 16.728C30.4933 16.792 30.536 16.8773 30.536 16.984V38.616C30.536 38.7227 30.4933 38.8187 30.408 38.904C30.344 38.968 30.2587 39 30.152 39H26.408C26.3013 39 26.2053 38.968 26.12 38.904C26.056 38.8187 26.024 38.7227 26.024 38.616V21.08C26.024 21.0373 26.0027 20.9947 25.96 20.952C25.9173 20.9093 25.8747 20.8987 25.832 20.92L22.664 21.784L22.536 21.816C22.344 21.816 22.248 21.6987 22.248 21.464L22.152 18.712C22.152 18.4987 22.248 18.3493 22.44 18.264L25.8 16.696Z" fill="#008B48"/>
</svg>
