<svg width="56" height="56" viewBox="0 0 56 56" fill="none" xmlns="http://www.w3.org/2000/svg">
<circle opacity="0.2" cx="28" cy="28" r="28" fill="#00984A"/>
<path d="M26.456 34.936C26.4133 34.9787 26.4027 35.0213 26.424 35.064C26.4453 35.1067 26.488 35.128 26.552 35.128H35.224C35.3307 35.128 35.416 35.1707 35.48 35.256C35.5653 35.32 35.608 35.4053 35.608 35.512V38.616C35.608 38.7227 35.5653 38.8187 35.48 38.904C35.416 38.968 35.3307 39 35.224 39H20.824C20.7173 39 20.6213 38.968 20.536 38.904C20.472 38.8187 20.44 38.7227 20.44 38.616V35.672C20.44 35.48 20.504 35.32 20.632 35.192C21.6773 34.168 22.744 33.0587 23.832 31.864C24.92 30.648 25.6027 29.8907 25.88 29.592C26.4773 28.888 27.0853 28.216 27.704 27.576C29.6453 25.4213 30.616 23.8213 30.616 22.776C30.616 22.0293 30.3493 21.4213 29.816 20.952C29.2827 20.4613 28.5893 20.216 27.736 20.216C26.8827 20.216 26.1893 20.4613 25.656 20.952C25.1227 21.4213 24.856 22.0507 24.856 22.84V23.64C24.856 23.7467 24.8133 23.8427 24.728 23.928C24.664 23.992 24.5787 24.024 24.472 24.024H20.696C20.5893 24.024 20.4933 23.992 20.408 23.928C20.344 23.8427 20.312 23.7467 20.312 23.64V22.136C20.376 20.984 20.7387 19.9707 21.4 19.096C22.0613 18.2 22.936 17.5173 24.024 17.048C25.1333 16.5787 26.3707 16.344 27.736 16.344C29.2507 16.344 30.5627 16.632 31.672 17.208C32.8027 17.7627 33.6667 18.52 34.264 19.48C34.8827 20.44 35.192 21.5067 35.192 22.68C35.192 23.576 34.968 24.4933 34.52 25.432C34.072 26.3707 33.4 27.384 32.504 28.472C31.8427 29.304 31.128 30.1253 30.36 30.936C29.592 31.7467 28.4507 32.92 26.936 34.456L26.456 34.936Z" fill="#008B48"/>
</svg>
