<svg width="56" height="56" viewBox="0 0 56 56" fill="none" xmlns="http://www.w3.org/2000/svg">
<circle opacity="0.2" cx="28" cy="28" r="28" fill="#00984A"/>
<path d="M34.264 29.312C34.6907 30.2933 34.904 31.424 34.904 32.704C34.904 33.856 34.712 34.9227 34.328 35.904C33.816 37.2693 32.952 38.336 31.736 39.104C30.5413 39.872 29.1227 40.256 27.48 40.256C25.8587 40.256 24.4293 39.8507 23.192 39.04C21.976 38.2293 21.1013 37.1307 20.568 35.744C20.2693 34.912 20.0987 34.016 20.056 33.056C20.056 32.8 20.184 32.672 20.44 32.672H24.216C24.472 32.672 24.6 32.8 24.6 33.056C24.6853 33.76 24.8027 34.2827 24.952 34.624C25.144 35.1787 25.4533 35.616 25.88 35.936C26.328 36.2347 26.8507 36.384 27.448 36.384C28.6427 36.384 29.464 35.8613 29.912 34.816C30.2107 34.176 30.36 33.4293 30.36 32.576C30.36 31.5733 30.2 30.752 29.88 30.112C29.3893 29.1093 28.568 28.608 27.416 28.608C27.1813 28.608 26.936 28.6827 26.68 28.832C26.424 28.96 26.1147 29.152 25.752 29.408C25.6667 29.472 25.5813 29.504 25.496 29.504C25.368 29.504 25.272 29.44 25.208 29.312L23.32 26.656C23.2773 26.592 23.256 26.5173 23.256 26.432C23.256 26.304 23.2987 26.1973 23.384 26.112L28.472 21.664C28.5147 21.6213 28.5253 21.5787 28.504 21.536C28.504 21.4933 28.472 21.472 28.408 21.472H20.888C20.7813 21.472 20.6853 21.44 20.6 21.376C20.536 21.2907 20.504 21.1947 20.504 21.088V17.984C20.504 17.8773 20.536 17.792 20.6 17.728C20.6853 17.6427 20.7813 17.6 20.888 17.6H34.232C34.3387 17.6 34.424 17.6427 34.488 17.728C34.5733 17.792 34.616 17.8773 34.616 17.984V21.504C34.616 21.6747 34.5413 21.8347 34.392 21.984L30.2 25.824C30.1573 25.8667 30.136 25.9093 30.136 25.952C30.1573 25.9947 30.2107 26.016 30.296 26.016C32.152 26.3787 33.4747 27.4773 34.264 29.312Z" fill="#008B48"/>
</svg>
