<svg width="56" height="56" viewBox="0 0 56 56" fill="none" xmlns="http://www.w3.org/2000/svg">
<circle opacity="0.2" cx="28" cy="28" r="28" fill="#00984A"/>
<path d="M35.472 29.24C35.5787 29.24 35.664 29.2827 35.728 29.368C35.8133 29.432 35.856 29.5173 35.856 29.624V32.856C35.856 32.9627 35.8133 33.0587 35.728 33.144C35.664 33.208 35.5787 33.24 35.472 33.24H34.096C33.9893 33.24 33.936 33.2933 33.936 33.4V38.616C33.936 38.7227 33.8933 38.8187 33.808 38.904C33.744 38.968 33.6587 39 33.552 39H29.808C29.7013 39 29.6053 38.968 29.52 38.904C29.456 38.8187 29.424 38.7227 29.424 38.616V33.4C29.424 33.2933 29.3707 33.24 29.264 33.24H19.44C19.3333 33.24 19.2373 33.208 19.152 33.144C19.088 33.0587 19.056 32.9627 19.056 32.856V30.296C19.056 30.168 19.088 30.008 19.152 29.816L24.912 16.888C24.9973 16.696 25.1467 16.6 25.36 16.6H29.36C29.5093 16.6 29.6053 16.6427 29.648 16.728C29.712 16.792 29.712 16.8987 29.648 17.048L24.304 29.048C24.2827 29.0907 24.2827 29.1333 24.304 29.176C24.3253 29.2187 24.3573 29.24 24.4 29.24H29.264C29.3707 29.24 29.424 29.1867 29.424 29.08V25.112C29.424 25.0053 29.456 24.92 29.52 24.856C29.6053 24.7707 29.7013 24.728 29.808 24.728H33.552C33.6587 24.728 33.744 24.7707 33.808 24.856C33.8933 24.92 33.936 25.0053 33.936 25.112V29.08C33.936 29.1867 33.9893 29.24 34.096 29.24H35.472Z" fill="#008B48"/>
</svg>
