<svg width="56" height="88" viewBox="0 0 56 88" fill="none" xmlns="http://www.w3.org/2000/svg">
<circle opacity="0.2" cx="28" cy="28" r="28" fill="#00984A"/>
<path d="M24.096 17.872C19.104 20.432 15.776 25.68 15.776 30.8C15.776 34.448 17.888 37.328 21.472 37.328C24.224 37.328 26.592 35.152 26.592 32.336C26.592 29.776 24.992 27.984 23.008 27.664C23.264 25.552 24.736 23.312 26.912 21.712L24.096 17.872ZM36.384 17.872C31.456 20.432 28.128 25.68 28.128 30.8C28.128 34.448 30.176 37.328 33.76 37.328C36.512 37.328 38.88 35.152 38.88 32.336C38.88 29.776 37.28 27.984 35.296 27.664C35.616 25.552 37.024 23.312 39.2 21.712L36.384 17.872Z" fill="#008B48"/>
</svg>
