<svg width="56" height="56" viewBox="0 0 56 56" fill="none" xmlns="http://www.w3.org/2000/svg">
<circle opacity="0.2" cx="28" cy="28" r="28" fill="#BED201"/>
<path d="M28 16C25.6266 16 23.3066 16.7038 21.3332 18.0224C19.3598 19.3409 17.8217 21.2151 16.9135 23.4078C16.0052 25.6005 15.7676 28.0133 16.2306 30.3411C16.6936 32.6689 17.8365 34.807 19.5147 36.4853C21.193 38.1635 23.3311 39.3064 25.6589 39.7694C27.9867 40.2324 30.3995 39.9948 32.5922 39.0865C34.7849 38.1783 36.6591 36.6402 37.9776 34.6668C39.2962 32.6935 40 30.3734 40 28C40 24.8174 38.7357 21.7652 36.4853 19.5147C34.2348 17.2643 31.1826 16 28 16Z" fill="#BED201"/>
<path d="M31.2731 24.7274H26.9094C26.6201 24.7274 26.3426 24.8423 26.1381 25.0469C25.9335 25.2515 25.8185 25.529 25.8185 25.8183C25.8185 26.1076 25.9335 26.3851 26.1381 26.5897C26.3426 26.7943 26.6201 26.9092 26.9094 26.9092H29.0913C29.9592 26.9092 30.7917 27.254 31.4054 27.8678C32.0192 28.4815 32.364 29.314 32.364 30.1819C32.364 31.0499 32.0192 31.8824 31.4054 32.4961C30.7917 33.1099 29.9592 33.4547 29.0913 33.4547V34.5456C29.0913 34.8349 28.9763 35.1124 28.7717 35.317C28.5672 35.5216 28.2897 35.6365 28.0004 35.6365C27.711 35.6365 27.4336 35.5216 27.229 35.317C27.0244 35.1124 26.9094 34.8349 26.9094 34.5456V33.4547H24.7276C24.4383 33.4547 24.1608 33.3397 23.9562 33.1352C23.7517 32.9306 23.6367 32.6531 23.6367 32.3638C23.6367 32.0744 23.7517 31.797 23.9562 31.5924C24.1608 31.3878 24.4383 31.2729 24.7276 31.2729H29.0913C29.3806 31.2729 29.6581 31.1579 29.8627 30.9533C30.0672 30.7488 30.1822 30.4713 30.1822 30.1819C30.1822 29.8926 30.0672 29.6151 29.8627 29.4106C29.6581 29.206 29.3806 29.091 29.0913 29.091H26.9094C26.0415 29.091 25.209 28.7462 24.5953 28.1325C23.9815 27.5187 23.6367 26.6863 23.6367 25.8183C23.6367 24.9503 23.9815 24.1179 24.5953 23.5041C25.209 22.8904 26.0415 22.5456 26.9094 22.5456V21.4547C26.9094 21.1654 27.0244 20.8879 27.229 20.6833C27.4336 20.4787 27.711 20.3638 28.0004 20.3638C28.2897 20.3638 28.5672 20.4787 28.7717 20.6833C28.9763 20.8879 29.0913 21.1654 29.0913 21.4547V22.5456H31.2731C31.5624 22.5456 31.8399 22.6605 32.0445 22.8651C32.2491 23.0697 32.364 23.3472 32.364 23.6365C32.364 23.9258 32.2491 24.2033 32.0445 24.4079C31.8399 24.6125 31.5624 24.7274 31.2731 24.7274Z" fill="#00984A"/>
</svg>
