<svg width="56" height="56" viewBox="0 0 56 56" fill="none" xmlns="http://www.w3.org/2000/svg">
<circle opacity="0.2" cx="28" cy="28" r="28" fill="#BED201"/>
<path d="M28 16C25.6266 16 23.3066 16.7038 21.3332 18.0224C19.3598 19.3409 17.8217 21.2151 16.9135 23.4078C16.0052 25.6005 15.7676 28.0133 16.2306 30.3411C16.6936 32.6689 17.8365 34.807 19.5147 36.4853C21.193 38.1635 23.3311 39.3064 25.6589 39.7694C27.9867 40.2324 30.3995 39.9948 32.5922 39.0865C34.7849 38.1783 36.6591 36.6402 37.9776 34.6668C39.2962 32.6934 40 30.3734 40 28C40 26.4241 39.6896 24.8637 39.0866 23.4078C38.4835 21.9519 37.5996 20.629 36.4853 19.5147C35.371 18.4004 34.0481 17.5165 32.5922 16.9134C31.1363 16.3104 29.5759 16 28 16Z" fill="#BED201"/>
<path d="M28.0004 31.6753C29.0308 31.6753 30.0302 31.3226 30.8324 30.6759C31.0774 30.4722 31.3934 30.3742 31.7107 30.4035C31.8678 30.4179 32.0205 30.4632 32.1601 30.5367C32.2997 30.6102 32.4235 30.7105 32.5244 30.8319C32.7281 31.0769 32.826 31.3929 32.7968 31.7102C32.7675 32.0275 32.6134 32.3202 32.3684 32.5239C31.1428 33.547 29.5969 34.1074 28.0004 34.1074C26.4038 34.1074 24.858 33.547 23.6324 32.5239C23.3873 32.3202 23.2332 32.0275 23.2039 31.7102C23.1747 31.3929 23.2727 31.0769 23.4764 30.8319C23.6801 30.5868 23.9727 30.4327 24.2901 30.4035C24.6074 30.3742 24.9233 30.4722 25.1684 30.6759C25.9705 31.3226 26.9699 31.6753 28.0004 31.6753Z" fill="#00984A"/>
<path d="M25.4984 26.5968C25.1813 26.5968 24.8772 26.4714 24.6524 26.2479C24.5408 26.1354 24.4081 26.0461 24.2619 25.9852C24.1156 25.9243 23.9588 25.8929 23.8004 25.8929C23.642 25.8929 23.4851 25.9243 23.3389 25.9852C23.1926 26.0461 23.0599 26.1354 22.9484 26.2479C22.8408 26.3735 22.7084 26.4755 22.5595 26.5476C22.4107 26.6196 22.2485 26.6601 22.0832 26.6664C21.918 26.6728 21.7532 26.645 21.5992 26.5846C21.4452 26.5243 21.3053 26.4328 21.1884 26.3159C21.0714 26.1989 20.9799 26.0591 20.9196 25.9051C20.8593 25.7511 20.8314 25.5863 20.8378 25.421C20.8442 25.2558 20.8847 25.0936 20.9567 24.9447C21.0287 24.7958 21.1307 24.6635 21.2564 24.5559C21.9431 23.9043 22.8537 23.541 23.8004 23.541C24.747 23.541 25.6576 23.9043 26.3444 24.5559C26.5679 24.7807 26.6933 25.0849 26.6933 25.4019C26.6933 25.7189 26.5679 26.023 26.3444 26.2479C26.1195 26.4714 25.8154 26.5968 25.4984 26.5968Z" fill="#00984A"/>
<path d="M32.2004 23.541C33.147 23.541 34.0576 23.9043 34.7444 24.5559C34.9679 24.7807 35.0933 25.0849 35.0933 25.4019C35.0933 25.7189 34.9679 26.023 34.7444 26.2479C34.5195 26.4714 34.2154 26.5968 33.8984 26.5968C33.5813 26.5968 33.2772 26.4714 33.0524 26.2479C32.9408 26.1354 32.8081 26.0461 32.6619 25.9852C32.5156 25.9243 32.3588 25.8929 32.2004 25.8929C32.0419 25.8929 31.8851 25.9243 31.7389 25.9852C31.5926 26.0461 31.4599 26.1354 31.3484 26.2479C31.1188 26.4445 30.8235 26.5472 30.5215 26.5355C30.2195 26.5239 29.933 26.3987 29.7193 26.185C29.5056 25.9712 29.3804 25.6848 29.3687 25.3827C29.357 25.0807 29.4598 24.7854 29.6564 24.5559C30.3431 23.9043 31.2537 23.541 32.2004 23.541Z" fill="#00984A"/>
</svg>
