<svg width="56" height="56" viewBox="0 0 56 56" fill="none" xmlns="http://www.w3.org/2000/svg">
<circle opacity="0.2" cx="28" cy="28" r="28" fill="#00984A"/>
<path d="M27.6 29.2C27.2817 29.2 26.9765 29.3264 26.7515 29.5515C26.5264 29.7765 26.4 30.0817 26.4 30.4V34C26.4 34.3183 26.5264 34.6235 26.7515 34.8485C26.9765 35.0736 27.2817 35.2 27.6 35.2C27.9183 35.2 28.2235 35.0736 28.4485 34.8485C28.6736 34.6235 28.8 34.3183 28.8 34V30.4C28.8 30.0817 28.6736 29.7765 28.4485 29.5515C28.2235 29.3264 27.9183 29.2 27.6 29.2ZM33.6 24.4V22C33.6 20.4087 32.9679 18.8826 31.8426 17.7574C30.7174 16.6321 29.1913 16 27.6 16C26.0087 16 24.4826 16.6321 23.3574 17.7574C22.2321 18.8826 21.6 20.4087 21.6 22V24.4C20.6452 24.4 19.7295 24.7793 19.0544 25.4544C18.3793 26.1295 18 27.0452 18 28V36.4C18 37.3548 18.3793 38.2705 19.0544 38.9456C19.7295 39.6207 20.6452 40 21.6 40H33.6C34.5548 40 35.4705 39.6207 36.1456 38.9456C36.8207 38.2705 37.2 37.3548 37.2 36.4V28C37.2 27.0452 36.8207 26.1295 36.1456 25.4544C35.4705 24.7793 34.5548 24.4 33.6 24.4ZM24 22C24 21.0452 24.3793 20.1295 25.0544 19.4544C25.7295 18.7793 26.6452 18.4 27.6 18.4C28.5548 18.4 29.4705 18.7793 30.1456 19.4544C30.8207 20.1295 31.2 21.0452 31.2 22V24.4H24V22Z" fill="#008B48"/>
<path d="M26.7515 29.5514C26.9765 29.3264 27.2817 29.2 27.6 29.2C27.9183 29.2 28.2235 29.3264 28.4485 29.5514C28.6736 29.7765 28.8 30.0817 28.8 30.4V34C28.8 34.3182 28.6736 34.6234 28.4485 34.8485C28.2235 35.0735 27.9183 35.2 27.6 35.2C27.2817 35.2 26.9765 35.0735 26.7515 34.8485C26.5264 34.6234 26.4 34.3182 26.4 34V30.4C26.4 30.0817 26.5264 29.7765 26.7515 29.5514Z" fill="#CCEADB"/>
</svg>
