<svg width="109" height="109" viewBox="0 0 109 109" fill="none" xmlns="http://www.w3.org/2000/svg">
<path d="M50.6375 3.46433C52.8873 1.63417 56.1127 1.63417 58.3625 3.46433L64.1185 8.14674C65.582 9.33732 67.484 9.84695 69.3468 9.54766L76.6728 8.37058C79.5363 7.9105 82.3295 9.52319 83.3628 12.2331L86.0065 19.1661C86.6787 20.929 88.071 22.3213 89.8339 22.9935L96.7669 25.6372C99.4768 26.6705 101.089 29.4637 100.629 32.3272L99.4523 39.6532C99.1531 41.516 99.6627 43.418 100.853 44.8815L105.536 50.6375C107.366 52.8873 107.366 56.1127 105.536 58.3625L100.853 64.1185C99.6627 65.582 99.1531 67.484 99.4523 69.3468L100.629 76.6728C101.089 79.5363 99.4768 82.3295 96.7669 83.3628L89.8339 86.0065C88.071 86.6787 86.6787 88.071 86.0065 89.8339L83.3628 96.7669C82.3295 99.4768 79.5363 101.089 76.6728 100.629L69.3468 99.4523C67.484 99.1531 65.582 99.6627 64.1185 100.853L58.3625 105.536C56.1127 107.366 52.8873 107.366 50.6375 105.536L44.8815 100.853C43.418 99.6627 41.516 99.1531 39.6532 99.4523L32.3272 100.629C29.4637 101.089 26.6705 99.4768 25.6372 96.7669L22.9935 89.8339C22.3213 88.071 20.929 86.6787 19.1661 86.0065L12.2331 83.3628C9.52319 82.3295 7.9105 79.5363 8.37058 76.6728L9.54766 69.3468C9.84695 67.484 9.33732 65.582 8.14674 64.1185L3.46433 58.3625C1.63417 56.1127 1.63417 52.8873 3.46433 50.6375L8.14674 44.8815C9.33732 43.418 9.84695 41.516 9.54766 39.6532L8.37058 32.3272C7.9105 29.4637 9.52319 26.6705 12.2331 25.6372L19.1661 22.9935C20.929 22.3213 22.3213 20.929 22.9935 19.1661L25.6372 12.2331C26.6705 9.52319 29.4637 7.9105 32.3272 8.37058L39.6532 9.54766C41.516 9.84695 43.418 9.33732 44.8815 8.14674L50.6375 3.46433Z" fill="white" stroke="#D9D9D9" stroke-width="0.5"/>
<path d="M33.4256 66.9754C41.5868 81.1111 58.1475 86.8673 65.9301 82.8783L66.1192 82.7691C66.1664 82.7418 66.261 82.6872 66.3083 82.6599C66.9701 82.2778 67.5574 81.8757 68.1174 81.4263L74.2141 77.4651L72.9732 75.5341C76.839 67.8181 75.1714 56.7412 69.1392 46.2932C64.0623 37.4998 53.7772 29.9484 44.7946 29.0201L42.9878 26.2181L34.6092 31.6859L34.6365 31.7332C24.5325 39.0165 25.5647 53.3599 33.4256 66.9754Z" fill="white"/>
<path d="M27.3223 49.6347L36.8248 44.1484L37.5345 45.3776L27.5119 51.1642C28.0989 55.2378 29.5334 59.5784 31.6517 63.9025L41.4379 58.2524L42.1475 59.4816L32.314 65.159C32.6689 65.7736 32.9764 66.4155 33.3313 67.0301C35.3511 70.5285 37.8763 73.483 40.6906 75.9555L50.7132 70.1689L51.4228 71.3981L41.873 76.9117C45.8824 80.144 50.3679 82.345 54.5166 83.4166L63.5936 78.176L64.3033 79.4052L56.5973 83.8543C60.1547 84.4478 63.4373 84.1285 65.8357 82.9329L66.0249 82.8237C66.0721 82.7964 66.1667 82.7418 66.2139 82.7145C66.8758 82.3324 67.4631 81.9303 68.0231 81.4809L74.0725 77.547L72.8316 75.616C76.6974 67.9 75.0298 56.8231 68.9976 46.3751C63.9207 37.5817 53.6356 30.0303 44.653 29.102L42.8462 26.3L34.4675 31.7678L34.4948 31.8151C28.751 35.9507 26.6398 42.3385 27.3223 49.6347Z" fill="#BED201"/>
<path d="M40.6495 62.2374C32.3519 47.8654 31.6414 32.769 43.4605 25.9452C53.2939 20.2679 69.4721 29.8379 76.2959 41.657C84.5935 56.029 84.5949 71.5348 73.4849 77.9491C65.9207 82.3163 48.9472 76.6094 40.6495 62.2374Z" fill="#008B48"/>
<path d="M49.2953 55.922C49.3972 55.9893 49.5736 56.0765 49.7227 56.1165C49.7973 56.1365 49.8246 56.1838 49.8719 56.1565C50.4485 56.3909 50.9978 56.578 51.5671 56.6906C52.8547 56.9557 56.3503 57.3329 59.4978 55.5787C61.3889 54.4869 62.7346 54.0882 63.5602 53.9897C63.6348 54.0097 63.7293 53.9551 63.8039 53.9751C64.4604 53.9112 64.7587 53.9911 64.7587 53.9911C65.7954 54.149 66.7395 54.8016 67.2854 55.7471C68.2953 57.4964 67.6959 59.7335 65.9466 60.7434C65.0011 61.2893 63.9518 61.3279 62.9823 61.0681C62.8332 61.0281 61.951 60.5919 61.5508 60.4447L61.4763 60.4248L61.4017 60.4048C60.3777 60.0505 59.2338 60.1436 58.241 60.7168C56.3972 61.7813 55.7578 64.1676 56.8223 66.0113C56.9315 66.2004 57.0407 66.3896 57.1971 66.5514C57.7211 67.1314 58.3796 67.5076 58.8816 67.722C58.9835 67.7893 59.1053 67.782 59.1799 67.802C61.9536 68.785 65.0544 68.6967 67.8583 67.33L68.3769 68.2282C68.4042 68.2755 68.4042 68.2755 68.4315 68.3228C69.1412 69.552 70.7072 69.9716 71.9364 69.2619C73.1656 68.5522 73.5852 66.9862 72.8755 65.757C72.8482 65.7098 72.8482 65.7098 72.8209 65.6625L72.1112 64.4333C72.3403 64.175 72.6166 63.8894 72.8457 63.631C73.0075 63.4746 73.142 63.2709 73.2766 63.0671C75.5307 59.8747 75.8766 55.4516 73.7203 51.7168C72.0553 48.8329 69.3322 47.0642 66.3913 46.5559C66.2422 46.516 66.1203 46.5233 65.9984 46.5306C65.9239 46.5106 65.802 46.5179 65.7275 46.498C63.5396 46.3113 61.8829 46.8265 59.8028 48.0275C57.8645 49.1466 56.5188 49.5453 55.6931 49.6438C55.6186 49.6238 55.524 49.6784 55.4494 49.6584C54.7929 49.7223 54.4946 49.6424 54.4946 49.6424C53.458 49.4845 52.4666 48.8592 51.8934 47.8664C50.8835 46.1172 51.4556 43.8327 53.2521 42.7955C54.1976 42.2496 55.2943 42.1838 56.2437 42.5182C56.3929 42.5581 57.3223 42.967 57.7498 43.1615L57.8244 43.1814L57.8989 43.2014C58.9229 43.5557 60.1414 43.4826 61.1342 42.9094C63.0253 41.8176 63.6647 39.4313 62.5729 37.5403C62.4637 37.3512 62.3545 37.1621 62.198 37.0003C61.6741 36.4203 61.0156 36.044 60.4863 35.7823C60.3844 35.715 60.2626 35.7224 60.188 35.7024C57.387 34.6721 54.2389 34.7877 51.3877 36.1817L50.8418 35.2362C50.8145 35.1889 50.8145 35.1889 50.7872 35.1416C50.0776 33.9124 48.5116 33.4928 47.2824 34.2025C46.0532 34.9122 45.6336 36.4782 46.3432 37.7073C46.3705 37.7546 46.3705 37.7546 46.3978 37.8019L47.0529 38.9365C46.8238 39.1948 46.5475 39.4805 46.3184 39.7388C46.1566 39.8953 46.0221 40.099 45.8876 40.3027C43.5862 43.5225 43.2949 48.0401 45.4512 51.7749C46.272 53.6333 47.4018 54.9351 49.2953 55.922Z" fill="white"/>
</svg>
