<svg width="56" height="56" viewBox="0 0 56 56" fill="none" xmlns="http://www.w3.org/2000/svg">
<circle opacity="0.2" cx="28" cy="28" r="28" fill="#00984A"/>
<path d="M28 16C25.6266 16 23.3066 16.7038 21.3332 18.0224C19.3598 19.3409 17.8217 21.2151 16.9135 23.4078C16.0052 25.6005 15.7676 28.0133 16.2306 30.3411C16.6936 32.6689 17.8365 34.807 19.5147 36.4853C21.193 38.1635 23.3311 39.3064 25.6589 39.7694C27.9867 40.2324 30.3995 39.9948 32.5922 39.0865C34.7849 38.1783 36.6591 36.6402 37.9776 34.6668C39.2962 32.6934 40 30.3734 40 28C40 26.4241 39.6896 24.8637 39.0866 23.4078C38.4835 21.9519 37.5996 20.629 36.4853 19.5147C35.371 18.4004 34.0481 17.5165 32.5922 16.9134C31.1363 16.3104 29.5759 16 28 16Z" fill="#008B48"/>
<path d="M29.1998 26.7998H31.5998C31.9181 26.7998 32.2233 26.9262 32.4483 27.1513C32.6734 27.3763 32.7998 27.6815 32.7998 27.9998C32.7998 28.3181 32.6734 28.6233 32.4483 28.8483C32.2233 29.0734 31.9181 29.1998 31.5998 29.1998H27.9998C27.6815 29.1998 27.3763 29.0734 27.1513 28.8483C26.9262 28.6233 26.7998 28.3181 26.7998 27.9998V21.9998C26.7998 21.6815 26.9262 21.3763 27.1513 21.1513C27.3763 20.9262 27.6815 20.7998 27.9998 20.7998C28.3181 20.7998 28.6233 20.9262 28.8483 21.1513C29.0734 21.3763 29.1998 21.6815 29.1998 21.9998V26.7998Z" fill="#CCEADB"/>
</svg>
