<svg width="56" height="56" viewBox="0 0 56 56" fill="none" xmlns="http://www.w3.org/2000/svg">
<circle opacity="0.2" cx="28" cy="28" r="28" fill="#00984A"/>
<path d="M20.8775 38.9314C19.8365 38.9314 18.8315 38.5244 18.1205 37.8134C16.6265 36.3184 16.6265 33.7934 18.1205 32.2994L24.7875 25.6324C24.2645 23.2954 24.9745 20.8464 26.7205 19.0994C28.7635 17.1704 31.5265 16.5254 34.1305 17.3534C34.4635 17.4594 34.7165 17.7304 34.7995 18.0694C34.8815 18.4084 34.7825 18.7664 34.5345 19.0134L31.6775 21.8714L32.3145 23.7194L34.1635 24.3574L37.0215 21.4994C37.2675 21.2524 37.6275 21.1514 37.9645 21.2344C38.3035 21.3174 38.5745 21.5704 38.6815 21.9034C39.5355 24.5894 38.7945 27.4744 36.7915 29.2534C35.2215 30.9314 32.6665 31.6644 30.3025 31.1464L23.6355 37.8134C22.9245 38.5244 21.9195 38.9314 20.8775 38.9314Z" fill="#008B48"/>
</svg>
